<?xml version="1.0" ?><svg id="Layer_1" style="enable-background:new 0 0 500 500;" version="1.1" viewBox="0 0 500 500" xml:space="preserve" xmlns="http://www.w3.org/2000/svg" xmlns:xlink="http://www.w3.org/1999/xlink"><style type="text/css">
	.st0{fill:none;stroke:#000000;stroke-width:10;stroke-miterlimit:10;}
</style><g id="shower"><g><g><path d="M380.72,144.21h-36.64c-12.06,0-21.87-9.81-21.87-21.87V49.37c0-12.06,9.81-21.87,21.87-21.87h36.64V144.21z      M344.08,37.5c-6.54,0-11.87,5.32-11.87,11.87v72.97c0,6.54,5.32,11.87,11.87,11.87h26.64V37.5H344.08z"/></g><g><g><path d="M273.06,276.35H119.28v-11.14c0-7.35,4.85-13.93,11.79-16.01c28.39-8.48,43.79-37.42,46.49-42.91l0.01-120.39      c0-10.2,8.3-18.5,18.5-18.5h136.14v37.2H223.28c-4.69,0-8.5,3.82-8.5,8.5v93.19c2.69,5.48,18.09,34.43,46.49,42.91      c6.94,2.07,11.79,8.66,11.79,16.01V276.35z M129.28,266.35h133.78v-1.14c0-2.96-1.91-5.61-4.66-6.42      c-35.75-10.67-52.51-47.77-53.2-49.34l-0.43-0.97V113.1c0-10.2,8.3-18.5,18.5-18.5h98.94v-17.2H196.08c-4.69,0-8.5,3.81-8.5,8.5      l-0.01,122.58l-0.43,0.97c-0.7,1.57-17.46,38.67-53.2,49.34c-2.74,0.82-4.66,3.46-4.66,6.42V266.35z"/></g><g><path d="M258.61,299.57H133.73c-7.97,0-14.45-6.48-14.45-14.45v-18.78h153.78v18.78C273.06,293.09,266.58,299.57,258.61,299.57z       M129.28,276.35v8.78c0,2.45,2,4.45,4.45,4.45h124.88c2.45,0,4.45-2,4.45-4.45v-8.78H129.28z"/></g></g></g><g><g><g><path d="M196.14,338.3c-2.76,0-5-2.24-5-5v-18.83c0-2.76,2.24-5,5-5s5,2.24,5,5v18.83C201.14,336.06,198.9,338.3,196.14,338.3z"/></g><g><path d="M196.14,371.85c-2.76,0-5-2.24-5-5v-18.83c0-2.76,2.24-5,5-5s5,2.24,5,5v18.83      C201.14,369.61,198.9,371.85,196.14,371.85z"/></g><g><path d="M196.14,405.4c-2.76,0-5-2.24-5-5v-18.83c0-2.76,2.24-5,5-5s5,2.24,5,5v18.83C201.14,403.16,198.9,405.4,196.14,405.4z"/></g><g><path d="M196.14,438.95c-2.76,0-5-2.24-5-5v-18.83c0-2.76,2.24-5,5-5s5,2.24,5,5v18.83      C201.14,436.71,198.9,438.95,196.14,438.95z"/></g><g><path d="M196.14,472.5c-2.76,0-5-2.24-5-5v-18.83c0-2.76,2.24-5,5-5s5,2.24,5,5v18.83C201.14,470.26,198.9,472.5,196.14,472.5z"/></g></g><g><g><path d="M231.68,338.89c-2.45,0-4.58-1.8-4.94-4.29l-2.69-18.64c-0.39-2.73,1.5-5.27,4.24-5.66c2.73-0.39,5.27,1.5,5.66,4.24      l2.69,18.64c0.39,2.73-1.5,5.27-4.24,5.66C232.16,338.87,231.92,338.89,231.68,338.89z"/></g><g><path d="M236.46,372.1c-2.45,0-4.58-1.8-4.94-4.29l-2.68-18.64c-0.39-2.73,1.5-5.27,4.24-5.66c2.74-0.39,5.27,1.5,5.66,4.24      l2.68,18.64c0.39,2.73-1.5,5.27-4.24,5.66C236.94,372.08,236.7,372.1,236.46,372.1z"/></g><g><path d="M241.25,405.3c-2.45,0-4.58-1.8-4.94-4.29l-2.68-18.64c-0.39-2.73,1.5-5.27,4.24-5.66c2.74-0.39,5.27,1.5,5.66,4.24      l2.68,18.64c0.39,2.73-1.5,5.27-4.24,5.66C241.72,405.29,241.48,405.3,241.25,405.3z"/></g><g><path d="M246.03,438.51c-2.45,0-4.58-1.8-4.94-4.29l-2.69-18.64c-0.39-2.73,1.5-5.27,4.24-5.66c2.73-0.39,5.27,1.5,5.66,4.24      l2.69,18.64c0.39,2.73-1.5,5.27-4.24,5.66C246.51,438.49,246.27,438.51,246.03,438.51z"/></g><g><path d="M250.81,471.72c-2.45,0-4.58-1.8-4.94-4.29l-2.68-18.64c-0.39-2.73,1.5-5.27,4.24-5.66c2.74-0.39,5.27,1.5,5.66,4.24      l2.68,18.64c0.39,2.73-1.5,5.27-4.24,5.66C251.29,471.7,251.05,471.72,250.81,471.72z"/></g></g><g><g><path d="M160.72,338.89c-0.24,0-0.48-0.02-0.72-0.05c-2.73-0.39-4.63-2.93-4.24-5.66l2.69-18.64c0.39-2.73,2.93-4.62,5.66-4.24      c2.73,0.39,4.63,2.93,4.24,5.66l-2.69,18.64C165.31,337.09,163.17,338.89,160.72,338.89z"/></g><g><path d="M155.94,372.1c-0.24,0-0.48-0.02-0.72-0.05c-2.73-0.39-4.63-2.93-4.24-5.66l2.69-18.64c0.39-2.73,2.92-4.62,5.66-4.24      c2.73,0.39,4.63,2.93,4.24,5.66l-2.69,18.64C160.52,370.3,158.39,372.1,155.94,372.1z"/></g><g><path d="M151.16,405.3c-0.24,0-0.48-0.02-0.72-0.05c-2.73-0.39-4.63-2.93-4.24-5.66l2.68-18.64c0.39-2.73,2.93-4.62,5.66-4.24      c2.73,0.39,4.63,2.93,4.24,5.66l-2.68,18.64C155.74,403.51,153.6,405.3,151.16,405.3z"/></g><g><path d="M146.37,438.51c-0.24,0-0.48-0.02-0.72-0.05c-2.73-0.39-4.63-2.93-4.24-5.66l2.69-18.64c0.39-2.73,2.93-4.62,5.66-4.24      c2.73,0.39,4.63,2.93,4.24,5.66l-2.69,18.64C150.96,436.71,148.82,438.51,146.37,438.51z"/></g><g><path d="M141.59,471.72c-0.24,0-0.48-0.02-0.72-0.05c-2.73-0.39-4.63-2.93-4.24-5.66l2.69-18.64c0.39-2.73,2.92-4.62,5.66-4.24      c2.73,0.39,4.63,2.93,4.24,5.66l-2.69,18.64C146.17,469.92,144.04,471.72,141.59,471.72z"/></g></g></g></g></svg>