<?xml version="1.0" ?><svg data-name="Layer 1" id="Layer_1" viewBox="0 0 272 272" xmlns="http://www.w3.org/2000/svg"><defs><style>.cls-1{fill:#564c4d;}</style></defs><title/><path class="cls-1" d="M207.46,8.15C192.82,5.56,175.13,36.56,168,77.39a112.22,112.22,0,0,0,.15,37.45C158.51,108.18,147.51,104,136,104h0c-11.51,0-22.49,4.16-32.07,10.8A112.21,112.21,0,0,0,104,77.39C96.87,36.56,79.18,5.56,64.54,8.15S43.84,45.94,51,86.77c4.31,24.5,17.66,44.51,27.66,56.61a76.83,76.83,0,0,0-4.08,8.9l-10,26.36a52.87,52.87,0,0,0,.18,38.58C75.69,244.57,103.46,264,136,264h0c33.1,0,61.26-20.12,71.81-48.23a52.37,52.37,0,0,0-.37-37.09l-10.06-26.39a76.82,76.82,0,0,0-4.06-8.87c10-12.1,23.38-32.13,27.69-56.65C228.16,45.94,222.1,10.74,207.46,8.15ZM65.93,16a1.91,1.91,0,0,1,.34,0c6.58,0,22.65,21.56,29.9,62.77,2.8,15.93,1,31.46-2,44.11h0a84.55,84.55,0,0,0-11,13.2c-9.13-11.52-20.46-29.4-24.2-50.7C51.24,41.8,60.36,17,65.93,16Zm35.42,100.63h0ZM80.88,139.54l-.19.32Zm119.06,42a44.43,44.43,0,0,1,.35,31.44c-9.65,25.74-35.5,43-64.32,43-28.17,0-53.82-16.78-63.82-41.75A44.87,44.87,0,0,1,72,181.5l10-26.36C90,134.22,111.65,112,136,112s45.93,22.22,53.9,43.13Zm-8.85-42,.2.33Zm22-54.19c-3.76,21.4-15.08,39.27-24.21,50.75a84.57,84.57,0,0,0-11-13.16h0c-3.05-12.69-4.89-28.28-2.09-44.2C183.08,37.56,199.15,16,205.73,16a1.91,1.91,0,0,1,.34,0C211.64,17,220.76,41.8,213.1,85.38Z"/><circle class="cls-1" cx="166" cy="176" r="8"/><circle class="cls-1" cx="106" cy="176" r="8"/><ellipse class="cls-1" cx="180" cy="200" rx="9" ry="6"/><ellipse class="cls-1" cx="92" cy="200" rx="9" ry="6"/><path class="cls-1" d="M146,228a4,4,0,0,1-3.93-3.32,14.53,14.53,0,0,0,5.62-4.33l1.55-2a7.76,7.76,0,0,0-.1-10,11,11,0,0,0-8.24-3.67h-9.84a11,11,0,0,0-7.81,3.22,7.85,7.85,0,0,0-.51,10.43l1.54,2a14.53,14.53,0,0,0,5.65,4.34A4,4,0,0,1,122,224h-8a12,12,0,0,0,22,6.63A12,12,0,0,0,158,224h-8A4,4,0,0,1,146,228Zm-16.72-14.54a2.58,2.58,0,0,1,1.78-.7h9.84a2.55,2.55,0,0,1,1.8.71l0,.07-1.55,2a6.58,6.58,0,0,1-10.25,0l-1.54-2A.2.2,0,0,1,129.28,213.46Z"/></svg>